<svg xmlns="http://www.w3.org/2000/svg" viewBox="0 0 420 446"><g class="map-regions"><path data-region="제주" d="M156.1,418.3 157.1,420.2 156.8,421.3 155.6,421.0 155.1,420.0 156.1,418.3ZM144.4,414.9 145.7,415.7 147.6,415.4 147.8,416.6 149.6,418.2 150.5,417.8 152.6,418.2 153.5,420.3 152.7,421.5 153.2,422.6 154.8,422.5 155.1,423.5 154.2,424.3 152.9,428.1 152.9,429.3 151.8,429.7 150.6,431.0 150.3,432.5 148.7,434.1 149.0,434.7 148.1,436.1 146.3,436.7 144.3,436.3 142.1,438.6 141.2,438.6 138.5,439.4 136.4,439.2 135.2,439.7 133.7,441.7 132.3,442.1 131.5,441.4 129.0,442.0 127.1,441.7 126.4,442.6 125.0,442.6 123.8,443.2 122.5,441.8 121.2,442.4 119.9,441.4 118.1,442.5 113.8,441.9 112.3,443.2 111.9,444.5 110.5,445.6 109.0,444.0 107.9,442.2 105.8,441.3 104.6,440.2 103.1,437.5 103.5,436.9 103.2,434.9 103.6,433.0 105.1,431.5 106.6,430.6 107.3,429.3 108.2,428.9 109.8,427.2 109.8,425.8 112.8,424.4 113.0,423.2 114.8,423.1 118.1,421.2 118.7,421.7 124.4,419.6 125.3,418.6 126.7,419.0 128.4,417.9 129.0,418.7 131.2,418.2 132.2,417.3 134.6,417.2 135.3,415.7 136.3,416.1 140.2,415.8 140.8,415.3 142.8,415.6 144.4,414.9Z"><title>제주</title></path><path data-region="경남" d="M241.4,325.8 243.3,326.2 244.1,328.4 241.8,328.1 240.6,327.0 241.4,325.8ZM237.4,320.8 238.8,321.2 239.1,322.5 237.8,322.5 237.4,320.8ZM257.9,312.2 258.5,315.0 259.5,316.3 258.3,317.0 257.0,316.7 257.1,315.5 256.3,314.5 257.9,312.2ZM241.4,310.2 243.2,312.0 242.0,313.5 239.9,313.0 239.0,311.6 240.1,310.3 241.4,310.2ZM238.7,308.6 239.7,309.2 238.7,311.1 237.7,311.3 236.8,310.1 237.0,309.1 238.7,308.6ZM227.9,303.7 228.1,305.4 230.1,307.7 229.7,309.7 229.9,311.0 227.3,309.7 227.2,310.3 224.8,310.5 223.6,309.9 223.1,307.8 224.2,306.9 225.4,304.5 226.1,303.7 227.9,303.7ZM218.7,301.5 220.2,302.0 221.0,304.1 220.5,305.3 218.9,307.6 220.6,311.0 221.8,311.3 222.6,313.1 225.0,310.8 227.8,311.0 229.7,311.7 229.7,313.6 229.1,313.9 229.4,318.0 227.4,320.2 226.6,319.8 224.7,320.8 222.7,321.0 222.0,319.1 222.3,315.4 220.9,315.5 219.3,316.3 219.8,318.8 218.1,319.9 216.8,319.6 216.0,318.2 214.7,317.6 215.8,316.0 214.6,313.3 213.2,310.7 212.8,308.8 214.1,307.4 214.4,305.6 215.7,305.1 216.0,303.2 217.0,301.8 218.7,301.5ZM270.9,293.8 271.9,294.6 273.1,294.4 273.7,295.6 272.4,296.6 271.9,298.8 274.1,301.4 273.5,302.3 273.9,304.1 273.4,305.3 272.0,306.2 273.2,307.4 274.6,306.0 275.1,307.9 272.4,310.2 275.0,314.1 272.9,314.0 272.9,312.5 271.7,312.9 270.5,312.4 270.1,314.1 270.5,314.7 268.2,316.6 269.1,318.2 270.2,318.0 271.2,318.6 267.2,319.1 267.8,320.2 266.3,321.6 264.3,320.4 265.8,319.6 266.0,318.8 264.1,318.4 263.2,316.3 261.8,315.6 261.5,314.5 264.2,314.0 264.6,313.4 264.7,310.9 264.1,309.1 261.9,310.7 260.0,312.9 259.0,310.8 257.7,310.2 257.1,307.2 258.7,304.9 260.0,304.5 260.8,303.3 262.1,304.6 264.5,304.1 265.5,305.2 266.4,305.2 265.4,302.3 264.6,301.5 266.9,300.2 268.7,300.1 268.9,298.8 267.0,298.2 267.7,296.3 268.7,295.6 269.1,298.1 270.1,296.5 270.9,293.8ZM250.3,246.8 251.1,247.2 254.4,245.9 255.4,244.6 257.9,244.8 259.3,244.5 259.5,241.6 260.7,241.0 261.5,243.5 261.4,245.8 262.8,246.5 264.6,248.9 266.1,249.4 269.5,247.9 271.7,248.2 272.5,249.5 273.9,249.4 276.3,250.4 278.0,250.5 279.0,248.7 281.2,248.0 282.5,248.0 283.7,246.0 286.4,244.6 288.1,244.9 291.0,247.1 292.5,246.1 293.6,246.5 294.0,247.7 293.6,249.0 291.9,250.3 290.3,251.0 291.9,253.6 293.8,253.9 299.3,256.4 299.5,257.6 301.5,260.2 302.9,261.3 304.1,261.5 305.3,261.0 306.9,263.4 305.8,265.2 305.1,267.4 303.9,268.2 302.1,267.1 300.7,268.7 299.7,271.7 298.2,272.2 297.1,273.2 296.2,272.8 295.5,274.1 293.1,274.6 292.1,277.8 287.1,279.3 284.5,279.5 283.6,280.5 284.4,282.1 283.3,283.4 281.8,284.1 278.5,284.1 279.1,285.4 281.1,286.4 281.7,288.3 280.4,289.0 279.1,289.7 277.5,288.6 274.5,289.5 272.5,288.5 271.5,284.8 269.8,286.4 267.9,284.8 266.5,285.2 265.2,282.9 264.7,279.8 263.3,281.9 265.7,286.1 265.8,288.5 267.1,289.6 268.0,291.5 265.9,292.5 264.1,292.8 262.9,291.4 263.0,290.2 261.2,287.8 260.2,289.1 258.2,288.3 256.8,289.1 256.4,291.2 255.0,291.2 254.1,292.6 253.0,292.0 251.0,293.1 251.6,294.2 255.3,292.8 255.5,291.3 257.8,291.8 257.0,293.7 259.1,295.9 257.5,297.7 256.5,298.1 254.9,297.6 255.0,300.2 254.4,300.6 254.5,302.7 253.7,305.7 254.4,307.2 255.7,304.0 256.9,306.3 256.0,307.2 255.8,309.7 253.8,310.8 255.1,311.3 255.1,313.3 254.7,315.2 254.0,316.4 252.7,316.6 251.6,314.4 250.7,313.9 250.9,312.3 248.2,311.2 249.5,310.3 250.7,311.4 250.8,309.3 251.9,308.3 250.6,306.8 249.9,307.8 247.1,306.6 245.5,305.1 246.1,304.6 249.3,304.6 248.7,302.6 247.9,301.6 245.6,302.4 245.7,304.3 244.5,304.9 243.3,304.3 243.6,302.5 241.7,301.7 238.7,302.3 239.2,303.4 238.8,304.3 239.1,305.8 237.4,305.7 233.8,304.9 230.7,303.4 229.3,303.0 227.6,300.7 229.1,298.9 228.2,297.0 228.9,295.7 227.4,294.3 226.2,295.1 226.8,296.4 226.7,297.7 224.9,298.0 224.5,298.9 223.1,298.1 222.2,299.0 221.1,297.7 220.8,296.0 219.2,299.5 219.2,300.5 217.3,301.4 214.8,301.2 211.3,302.0 210.0,299.3 210.8,298.1 211.5,295.7 210.5,294.7 210.2,292.9 208.4,292.0 208.2,290.7 206.9,290.4 205.3,288.6 205.3,286.4 200.4,281.6 200.2,277.6 199.7,275.5 198.7,275.0 197.5,271.7 198.5,271.5 200.4,269.7 200.5,268.8 199.7,267.0 201.7,263.8 203.1,262.8 203.5,260.2 202.0,260.1 201.4,259.1 201.5,257.7 202.5,257.2 200.8,254.0 200.6,253.2 198.4,251.5 198.2,250.6 199.7,249.0 199.8,247.2 200.9,246.3 200.4,244.3 200.9,242.6 201.6,242.0 202.0,239.7 203.1,238.7 203.1,234.7 205.7,232.2 207.0,231.5 208.7,227.8 210.5,228.1 211.5,227.1 212.9,226.9 214.4,225.6 215.1,225.8 215.8,224.0 218.2,221.9 218.0,223.7 218.5,224.2 220.1,223.8 221.0,224.9 221.1,226.7 222.4,226.3 223.7,227.1 224.7,226.6 225.5,228.2 226.5,228.9 227.8,228.4 229.0,228.9 230.3,228.0 233.9,229.5 233.7,231.0 234.2,232.2 235.8,232.5 236.6,234.4 238.1,235.1 239.1,237.7 239.1,240.8 237.6,241.7 236.6,241.7 236.5,243.4 238.0,243.0 239.0,244.2 241.3,244.4 241.9,243.2 243.0,244.2 244.2,243.5 246.0,243.2 249.3,244.3 250.3,246.8Z"><title>경남</title></path><path data-region="경북" d="M322.2,243.6 319.7,242.5 315.8,241.2 312.4,243.8 309.6,243.3 309.2,242.3 309.7,240.2 309.1,239.4 307.8,239.2 306.0,237.8 302.9,238.3 301.9,237.5 301.2,238.6 298.1,239.4 296.9,241.1 296.8,242.9 297.2,244.5 295.4,243.6 292.5,246.1 291.0,247.1 288.1,244.9 286.4,244.6 283.7,246.0 282.5,248.0 281.2,248.0 279.0,248.7 278.0,250.5 276.3,250.4 273.9,249.4 272.5,249.5 271.7,248.2 269.5,247.9 266.1,249.4 264.6,248.9 262.8,246.5 261.4,245.8 261.5,243.5 260.7,241.0 261.9,238.0 264.3,236.3 266.7,236.5 266.3,237.4 267.1,239.3 268.1,239.1 269.9,237.9 271.2,237.7 271.7,236.9 272.0,234.8 271.1,232.2 273.4,230.8 272.8,229.1 275.7,226.6 276.5,224.4 276.0,221.9 274.8,220.8 275.3,219.5 274.8,218.5 275.3,217.3 274.4,216.1 274.0,214.5 271.6,213.7 266.8,214.3 264.9,216.6 262.7,217.3 260.7,216.9 261.3,219.8 260.5,221.6 258.5,223.4 257.3,223.5 256.8,222.6 257.3,220.1 255.0,220.2 253.5,221.3 252.5,224.0 251.3,225.9 251.6,227.2 253.8,227.1 256.3,227.9 257.4,229.1 256.9,230.6 253.6,230.5 252.8,231.6 251.4,234.3 251.8,235.8 254.4,237.4 254.5,239.3 253.5,240.1 249.6,238.9 249.0,239.3 249.3,241.1 251.1,243.2 252.5,244.3 251.3,246.8 250.3,246.8 249.3,244.3 246.0,243.2 244.2,243.5 243.0,244.2 241.9,243.2 241.3,244.4 239.0,244.2 238.0,243.0 236.5,243.4 236.6,241.7 237.6,241.7 239.1,240.8 239.1,237.7 238.1,235.1 236.6,234.4 235.8,232.5 234.2,232.2 233.7,231.0 233.9,229.5 230.3,228.0 229.0,228.9 227.8,228.4 226.5,228.9 225.5,228.2 224.7,226.6 223.7,227.1 222.4,226.3 221.1,226.7 221.0,224.9 220.1,223.8 218.5,224.2 218.0,223.7 218.2,221.9 217.8,220.8 219.6,219.7 218.6,216.1 217.4,215.1 217.5,213.0 219.2,211.7 220.1,210.4 221.4,210.7 223.1,209.2 222.8,207.1 223.4,205.1 224.8,204.3 225.4,202.3 224.0,199.4 224.7,198.4 226.5,197.7 228.2,198.9 229.1,198.4 229.0,197.2 227.6,195.1 228.8,193.8 226.3,192.5 224.5,193.1 223.5,194.3 222.3,193.8 221.0,192.0 218.5,190.9 217.6,192.3 215.7,192.2 215.1,189.4 215.8,187.7 217.8,186.5 218.4,185.5 217.2,181.5 217.8,180.2 217.2,178.9 217.8,177.0 217.7,175.3 219.4,173.1 219.0,171.7 217.2,170.6 217.2,169.2 216.4,168.1 213.9,167.9 212.2,166.3 213.9,164.5 215.6,164.5 215.5,162.8 216.5,162.7 217.3,161.0 218.3,163.1 221.1,164.1 221.5,161.3 221.1,160.2 218.1,158.0 221.1,157.9 221.1,156.8 222.2,155.8 223.1,154.3 224.8,155.9 225.8,156.0 227.1,155.2 228.9,156.6 230.4,156.7 230.2,155.5 227.8,153.4 229.3,149.7 229.6,147.8 231.3,148.8 232.8,148.6 233.1,147.5 234.9,146.3 236.6,147.5 240.2,147.9 239.9,145.1 241.2,145.2 241.8,143.1 244.5,144.4 245.4,146.3 247.0,147.9 247.9,147.7 250.1,149.1 251.1,148.0 253.7,148.2 255.6,145.1 255.5,143.8 253.9,142.8 255.0,140.7 255.1,138.6 256.3,138.1 256.5,137.0 259.8,134.6 259.9,133.7 261.9,133.3 263.7,131.3 263.3,130.1 264.5,129.1 267.6,129.5 269.1,127.3 271.5,128.3 272.3,129.3 274.6,129.4 275.7,130.3 276.4,129.8 275.7,127.9 276.6,127.4 277.9,125.4 279.5,126.3 280.7,126.2 282.0,128.4 284.0,129.0 285.3,129.0 287.1,125.1 288.5,124.8 289.6,126.3 291.1,125.7 296.6,127.1 297.3,125.0 298.6,124.4 301.6,125.9 305.2,129.3 307.7,129.0 307.3,126.6 308.9,124.8 309.9,124.3 310.3,123.0 311.8,123.3 312.5,122.1 314.9,120.7 316.5,120.6 317.6,122.8 317.5,124.4 319.2,126.3 320.7,127.4 319.9,128.3 319.6,130.7 320.1,132.2 319.5,134.3 320.2,136.7 320.3,141.1 319.9,141.8 320.8,145.1 322.7,147.8 323.1,150.1 324.1,151.7 323.4,152.6 324.0,154.6 323.7,155.4 324.0,157.4 323.2,158.5 321.4,159.8 319.7,163.7 319.6,166.0 320.4,168.1 321.6,169.5 322.0,173.5 321.2,175.1 321.4,176.8 321.3,179.6 320.5,181.5 318.6,184.8 317.5,187.5 317.7,188.3 317.2,191.1 317.6,192.3 317.1,193.9 317.9,195.1 317.8,197.4 317.0,197.8 317.4,199.3 318.4,200.1 318.9,201.3 318.7,203.8 321.6,206.6 320.1,207.6 320.2,208.6 317.6,209.9 317.3,210.8 317.8,212.4 320.0,213.9 320.8,215.1 322.3,215.6 323.8,213.8 325.7,212.8 325.8,211.9 327.7,210.1 328.7,207.9 330.2,208.6 331.1,213.2 330.8,214.2 329.3,215.6 329.2,217.5 327.8,220.1 326.8,220.9 327.4,222.6 326.9,225.3 327.4,226.1 326.2,229.4 326.5,230.0 325.0,232.4 325.3,233.7 324.6,237.1 323.7,239.2 323.9,240.7 322.2,243.6ZM419.2,87.5 419.3,89.2 420.0,90.4 419.6,93.0 416.3,94.8 414.2,94.4 412.2,92.9 412.4,91.3 411.5,90.5 415.2,88.6 418.3,88.2 419.2,87.5Z"><title>경북</title></path><path data-region="전남" d="M154.4,380.3 154.7,381.8 153.5,381.9 153.0,380.7 154.4,380.3ZM178.6,374.1 179.1,378.2 177.8,376.5 177.8,375.1 178.6,374.1ZM32.2,371.3 33.3,371.5 33.9,372.9 35.6,375.0 34.8,375.5 33.6,375.1 33.4,374.1 32.2,373.6 32.2,371.3ZM129.0,364.5 129.9,365.3 131.4,365.3 130.9,367.4 128.9,368.9 127.4,369.3 126.1,368.0 126.8,365.3 128.4,364.3 129.0,364.5ZM136.5,363.3 137.9,364.1 137.0,365.9 137.8,367.8 136.6,370.1 134.7,368.7 134.2,367.3 135.6,365.5 134.7,364.5 135.8,362.8 136.5,363.3ZM143.3,361.9 143.7,363.6 142.4,363.8 143.3,361.9ZM151.9,361.5 154.1,364.9 153.4,366.6 151.3,366.9 148.9,365.0 150.6,362.0 151.9,361.5ZM130.3,360.0 132.2,360.6 133.4,361.5 134.1,362.6 133.1,363.2 133.5,364.4 131.5,365.1 129.8,364.6 128.9,363.8 130.1,361.3 130.3,360.0ZM176.1,358.6 176.5,360.6 176.2,362.0 174.2,361.4 174.6,359.8 176.1,358.6ZM133.6,358.7 134.2,359.7 132.0,360.0 132.7,358.8 133.6,358.7ZM95.2,353.1 96.1,354.3 97.8,354.0 98.8,356.5 97.4,356.1 96.1,356.7 95.7,356.0 94.3,356.0 93.9,354.4 95.2,353.1ZM158.1,351.3 160.1,352.0 159.3,353.5 157.2,354.5 156.2,353.6 156.2,352.2 158.1,351.3ZM94.5,351.3 96.0,352.0 95.0,352.8 94.5,351.3ZM148.4,350.3 148.9,350.9 150.3,350.5 151.0,351.5 152.2,352.0 151.3,353.8 150.2,353.4 148.8,354.8 147.8,352.7 146.3,352.5 145.7,353.1 144.4,352.4 144.9,350.7 145.9,351.9 147.0,350.6 148.4,350.3ZM161.4,348.4 162.7,349.6 165.1,349.8 165.5,351.8 164.6,351.6 162.4,352.3 159.5,349.8 159.8,348.3 161.4,348.4ZM138.0,346.2 139.2,346.5 141.2,348.4 141.0,349.5 142.3,352.9 143.8,353.6 143.1,355.3 141.2,355.7 140.2,354.9 138.7,355.2 137.6,353.4 135.7,351.9 135.0,347.9 135.6,347.0 138.0,346.2ZM155.4,345.4 155.8,346.2 154.6,348.8 153.6,350.0 150.0,348.6 150.5,346.8 151.4,346.1 152.7,346.2 154.4,347.2 155.4,345.4ZM175.4,345.2 176.4,346.2 177.1,348.0 175.7,347.6 175.9,346.1 175.4,345.2ZM148.1,342.9 148.8,344.0 150.1,347.2 148.1,347.8 145.2,348.0 143.9,350.2 143.4,349.7 144.1,347.9 142.8,347.5 143.3,345.9 145.0,343.7 145.8,343.8 148.1,342.9ZM162.2,341.7 163.4,342.2 164.1,344.0 163.5,346.1 161.5,344.5 161.2,342.3 162.2,341.7ZM212.7,341.4 213.0,342.6 212.8,345.1 211.4,344.9 212.2,342.1 212.7,341.4ZM189.9,340.5 192.5,341.3 192.8,340.8 194.8,342.4 194.7,344.0 191.9,345.4 191.8,343.7 190.0,343.1 189.3,341.9 189.9,340.5ZM173.9,338.8 174.7,340.3 173.2,343.7 171.6,343.9 170.2,343.5 168.7,344.0 167.4,343.8 165.6,341.0 167.4,339.1 168.2,340.4 169.5,339.9 171.6,338.6 172.3,339.2 173.9,338.8ZM96.4,338.5 97.3,339.7 95.2,341.7 95.1,339.8 96.4,338.5ZM168.2,336.7 167.8,337.7 165.6,337.4 166.7,336.4 168.2,336.7ZM189.6,334.4 190.9,335.2 189.8,337.3 191.8,337.5 192.5,338.6 191.1,339.5 189.2,339.9 188.6,338.5 189.6,338.0 188.8,336.8 188.0,336.6 189.6,334.4ZM208.4,333.8 209.4,333.9 209.8,335.3 211.0,336.6 212.1,338.7 210.4,339.2 210.2,338.5 207.4,336.9 206.6,335.0 208.4,333.8ZM202.9,331.2 204.3,332.5 203.0,333.8 201.6,332.0 202.9,331.2ZM109.2,330.8 112.7,332.3 112.9,333.9 114.9,334.4 117.9,337.8 117.2,341.0 116.3,341.8 116.8,342.9 114.9,345.1 113.4,346.0 112.0,345.7 111.4,346.8 110.1,346.6 110.0,348.2 108.7,348.2 105.9,349.8 104.0,350.3 101.4,349.7 101.4,348.5 100.1,348.0 99.7,346.8 98.4,344.9 99.3,343.0 102.1,340.2 104.0,339.4 104.3,338.0 105.6,337.6 107.5,335.3 109.4,335.2 109.8,334.2 108.5,332.5 109.2,330.8ZM195.4,328.4 196.7,328.9 195.6,330.3 194.4,329.7 195.4,328.4ZM82.9,327.5 83.2,329.6 82.0,330.2 80.9,329.9 80.5,328.8 82.9,327.5ZM97.0,327.1 98.0,328.8 99.3,329.5 99.9,330.8 98.9,332.1 99.3,333.7 98.2,333.7 97.8,334.8 95.7,335.8 95.5,332.8 96.8,333.1 97.8,331.7 96.7,329.2 95.7,329.3 95.7,327.6 97.0,327.1ZM95.7,325.1 95.9,326.6 95.0,328.7 96.2,329.7 96.8,331.3 96.1,332.6 93.7,332.9 93.2,329.5 93.1,327.4 94.3,327.0 94.3,326.1 95.7,325.1ZM102.3,323.9 104.7,324.8 105.2,327.3 103.2,328.6 101.0,328.3 99.7,326.1 100.3,324.7 102.3,323.9ZM98.0,323.0 98.2,324.3 97.7,326.4 96.7,325.4 96.8,323.0 98.0,323.0ZM52.2,322.0 50.6,324.6 49.9,323.8 52.2,322.0ZM105.5,321.3 105.6,323.1 104.5,324.0 103.2,323.4 103.1,322.3 105.5,321.3ZM55.3,321.7 56.9,322.3 55.7,323.3 55.5,324.8 54.3,325.1 54.5,326.4 53.5,326.8 53.4,328.1 52.0,327.6 51.5,326.4 52.4,323.6 53.4,321.9 55.3,321.7ZM40.0,320.8 40.1,322.1 39.4,323.4 37.6,324.0 39.3,321.3 40.0,320.8ZM208.9,319.0 211.4,320.3 211.7,321.6 210.8,323.3 212.0,325.0 212.4,327.5 211.8,329.1 212.7,330.8 211.4,331.2 209.0,330.6 206.4,328.1 207.3,326.9 207.2,325.4 208.9,324.2 209.5,322.6 209.5,320.7 208.9,319.0ZM90.4,319.3 90.9,320.0 93.4,320.9 93.0,323.0 91.7,323.5 91.2,324.7 90.2,325.3 86.8,323.6 86.8,320.9 88.6,320.6 89.9,318.7 90.4,319.3ZM97.9,315.3 98.9,315.9 100.7,315.5 101.7,316.9 103.3,316.9 105.4,319.1 105.5,320.1 104.0,321.7 102.2,322.9 100.5,323.2 99.7,322.1 97.4,321.1 97.0,320.3 97.3,317.9 97.8,317.4 97.0,315.8 97.9,315.3ZM114.2,314.6 113.8,316.9 112.9,316.4 112.9,315.2 114.2,314.6ZM92.3,313.1 92.4,316.8 90.9,317.4 88.6,317.4 89.2,318.9 88.6,320.0 87.0,320.5 85.4,319.6 85.1,316.4 86.4,315.4 88.2,315.5 90.3,314.2 90.7,313.2 92.3,313.1ZM114.4,312.2 114.9,313.6 113.3,314.0 113.6,312.5 114.4,312.2ZM103.8,313.3 104.1,316.6 101.5,316.6 100.7,315.2 99.1,315.4 99.1,314.1 101.3,313.5 102.9,311.6 103.8,313.3ZM201.2,309.5 199.9,308.7 201.3,307.7 202.1,308.8 201.2,309.5ZM100.1,306.7 101.7,307.3 102.5,309.8 100.1,311.4 100.5,313.3 99.2,313.8 98.6,312.6 96.4,309.4 97.9,308.6 99.3,309.3 100.1,306.7ZM206.8,305.4 208.7,306.0 208.8,307.5 206.9,308.0 205.1,306.5 206.8,305.4ZM112.2,303.5 113.2,304.5 114.8,304.5 115.3,305.7 114.1,306.1 114.1,308.5 116.2,308.3 117.2,309.6 116.3,312.3 114.5,312.0 115.1,310.3 114.7,309.5 110.9,308.9 109.4,310.2 107.6,309.4 108.6,308.7 110.1,308.6 111.2,308.0 112.6,305.8 111.1,304.4 112.2,303.5ZM107.8,302.2 109.4,302.8 108.1,304.5 107.1,303.3 107.8,302.2ZM96.6,302.4 98.6,303.4 99.4,305.2 98.8,307.3 98.1,308.3 95.8,309.1 92.3,308.2 91.7,307.2 93.4,304.2 94.5,304.5 95.1,303.7 96.3,303.6 96.6,302.4ZM208.1,301.4 208.2,302.7 210.0,302.7 211.3,304.0 211.3,306.4 209.7,305.9 209.6,304.8 206.0,304.3 207.3,301.3 208.1,301.4ZM209.7,300.3 210.2,302.5 208.6,302.5 208.4,301.1 209.7,300.3ZM106.8,298.2 107.8,298.7 106.6,302.3 105.4,304.1 105.0,301.5 105.8,298.9 106.8,298.2ZM109.1,296.5 109.9,296.6 110.5,299.0 109.1,298.7 109.1,296.5ZM101.4,294.8 102.7,294.9 103.9,295.9 105.0,298.2 104.1,301.5 103.0,302.2 100.7,301.1 101.5,299.7 101.3,297.0 100.2,297.4 99.0,297.0 100.1,295.5 101.4,294.8ZM102.2,292.3 103.7,292.5 105.9,293.9 105.5,295.0 102.4,294.3 101.3,292.8 102.2,292.3ZM103.2,285.3 102.1,285.8 101.0,287.5 100.5,289.1 100.4,292.0 98.5,292.8 97.3,292.2 95.7,292.1 95.2,290.1 95.7,288.6 98.1,287.9 100.3,285.3 103.2,285.3ZM93.9,267.1 95.1,268.9 93.5,269.0 93.9,267.1ZM197.5,271.7 198.7,275.0 199.7,275.5 200.2,277.6 200.4,281.6 205.3,286.4 205.3,288.6 206.9,290.4 208.2,290.7 208.4,292.0 210.2,292.9 210.5,294.7 211.5,295.7 210.8,298.1 210.0,298.9 209.7,299.9 207.5,300.9 205.7,302.7 205.0,304.1 201.7,306.4 200.2,304.0 198.4,303.7 200.0,305.9 198.3,307.4 199.7,309.5 201.9,311.0 203.1,309.9 203.7,310.5 205.6,308.6 207.9,309.0 209.8,308.2 210.7,308.6 210.3,312.5 209.4,314.8 208.7,315.5 209.3,316.5 209.0,318.8 205.9,320.1 204.5,318.4 202.9,317.2 201.6,320.5 200.6,321.6 200.6,322.8 201.7,326.2 200.4,326.7 198.3,325.7 197.0,326.4 195.8,324.8 195.7,322.6 196.8,319.4 197.6,319.0 198.3,317.0 197.6,316.7 196.2,313.0 193.9,312.7 194.9,310.9 193.9,309.4 193.3,307.1 192.5,307.4 190.5,309.8 185.7,311.5 187.0,312.6 185.4,313.8 184.8,315.2 185.8,316.2 185.5,317.1 183.9,318.3 185.1,320.8 189.2,322.2 189.0,324.1 190.9,324.1 190.6,325.5 191.5,325.7 192.8,330.6 191.5,331.7 189.5,331.3 188.7,331.9 186.5,330.8 185.3,331.5 186.2,333.2 187.9,333.9 187.2,335.6 185.8,337.8 184.3,338.0 184.1,339.3 181.0,340.4 181.6,342.7 180.5,343.0 178.2,340.1 176.9,339.6 177.9,338.4 176.2,336.6 173.0,336.5 172.0,335.5 170.3,336.4 168.1,336.2 167.2,335.8 166.5,334.3 166.6,333.3 168.7,331.3 170.5,330.3 170.5,327.7 172.4,326.0 172.9,327.6 174.2,326.4 174.6,323.4 175.7,320.9 177.6,320.1 178.1,321.9 177.7,324.0 180.0,324.6 180.2,323.2 181.3,321.1 180.6,317.5 179.3,317.7 178.5,319.2 177.1,318.4 176.5,319.1 174.9,316.2 173.0,318.7 172.2,321.3 171.1,322.4 168.4,322.2 167.6,321.5 166.2,323.6 163.6,324.8 162.6,326.5 158.7,328.8 159.7,329.5 158.6,330.5 157.9,332.4 158.2,334.9 157.2,334.7 156.3,335.6 157.3,336.8 156.5,338.0 157.5,339.2 156.0,340.6 154.9,342.5 154.1,342.1 150.8,341.7 151.5,344.1 149.1,342.5 147.0,342.4 145.1,340.9 145.2,339.1 144.8,337.1 145.2,335.5 145.3,332.4 143.9,329.7 143.5,333.0 143.6,333.7 143.0,336.0 142.9,338.7 141.8,339.2 142.3,340.5 140.9,342.7 138.9,343.1 137.8,344.2 135.9,344.6 133.6,346.2 133.8,349.8 132.6,350.8 132.7,352.6 131.5,353.0 129.6,352.9 128.7,354.4 126.9,354.8 126.6,353.0 127.6,351.8 127.1,349.6 124.5,349.8 124.5,347.9 125.4,347.3 125.1,346.1 126.9,345.2 126.3,344.2 125.0,343.6 124.2,344.2 123.0,342.3 123.6,341.3 122.8,340.1 123.9,337.6 123.1,335.5 121.2,334.5 121.1,333.6 119.2,334.6 117.8,333.0 116.6,333.2 114.7,332.2 113.4,332.7 112.8,330.7 111.0,330.3 111.5,327.5 110.5,327.2 110.0,325.1 109.4,324.7 109.6,322.2 110.7,320.8 110.7,319.4 111.5,316.9 112.4,316.6 114.8,318.6 115.8,321.5 115.1,322.2 115.2,323.9 117.0,326.7 117.5,328.5 121.4,330.8 121.0,328.8 117.4,326.4 116.3,323.7 115.4,322.9 117.0,321.8 118.3,319.2 116.9,318.6 117.8,317.4 117.7,316.2 122.4,314.9 121.9,313.6 119.2,314.9 117.0,315.1 116.6,314.2 117.1,312.4 118.3,310.5 119.6,309.2 118.7,307.8 119.2,306.9 118.4,306.1 119.4,304.4 118.5,303.7 118.2,301.4 118.7,300.2 117.7,299.4 116.9,303.0 115.3,304.1 114.4,303.7 113.9,301.7 112.1,299.9 112.9,298.2 114.6,299.5 116.4,298.2 115.4,296.9 118.4,295.0 117.9,293.2 115.9,293.9 115.4,291.3 114.3,289.8 112.5,293.2 111.9,292.2 109.8,292.7 110.7,294.0 109.5,296.0 107.6,295.2 108.1,293.4 107.3,292.3 104.8,292.3 103.2,291.6 103.6,288.5 105.2,287.8 108.0,289.0 108.8,288.0 109.6,285.4 110.6,285.1 114.1,286.0 115.4,284.7 115.4,287.6 114.8,289.5 117.0,291.2 118.9,290.8 119.6,291.8 119.0,294.4 121.9,292.5 122.6,291.1 121.8,290.1 123.1,289.5 122.2,288.4 120.4,288.2 119.3,285.9 116.6,283.3 115.1,281.2 112.9,282.4 112.3,278.4 113.2,276.1 114.0,276.3 114.0,273.4 116.3,273.3 117.6,271.9 117.7,270.0 119.0,266.7 119.5,263.4 120.5,261.9 122.3,261.7 124.3,262.2 125.0,263.3 124.5,265.4 127.1,268.3 127.0,270.3 127.8,271.8 129.2,271.3 131.9,272.0 131.1,270.4 132.7,269.5 134.1,270.7 135.4,270.8 136.9,268.2 139.0,268.3 139.4,267.1 140.4,267.1 141.1,266.1 141.0,264.6 142.5,262.3 142.3,260.1 143.3,258.8 146.6,258.5 147.5,257.1 149.1,258.8 150.3,259.1 152.7,260.8 152.2,261.5 153.0,262.8 154.4,263.7 154.6,264.6 156.6,264.6 157.5,263.9 157.1,261.9 159.9,259.4 161.4,258.8 161.6,261.2 162.3,261.6 161.8,264.3 161.1,265.0 162.1,266.1 162.8,265.5 163.7,267.0 163.4,269.4 162.5,269.1 162.2,270.9 163.2,271.0 166.8,272.4 168.8,271.1 170.3,269.8 172.4,271.1 173.4,271.1 173.9,269.4 176.4,271.5 178.3,271.2 179.4,272.2 182.8,270.7 184.7,272.1 187.8,267.5 190.5,266.9 192.4,267.6 194.4,269.4 197.5,271.7Z"><title>전남</title></path><path data-region="전북" d="M112.7,246.0 113.3,246.6 112.7,248.0 111.7,248.4 110.0,250.1 109.0,248.8 110.4,248.6 110.8,247.4 111.9,247.3 112.7,246.0ZM201.5,209.2 202.6,210.2 203.0,211.6 204.7,209.8 205.5,210.2 206.1,212.2 207.7,212.2 211.5,213.7 212.4,212.7 215.9,211.7 217.5,213.0 217.4,215.1 218.6,216.1 219.6,219.7 217.8,220.8 218.2,221.9 215.8,224.0 215.1,225.8 214.4,225.6 212.9,226.9 211.5,227.1 210.5,228.1 208.7,227.8 207.0,231.5 205.7,232.2 203.1,234.7 203.1,238.7 202.0,239.7 201.6,242.0 200.9,242.6 200.4,244.3 200.9,246.3 199.8,247.2 199.7,249.0 198.2,250.6 198.4,251.5 200.6,253.2 200.8,254.0 202.5,257.2 201.5,257.7 201.4,259.1 202.0,260.1 203.5,260.2 203.1,262.8 201.7,263.8 199.7,267.0 200.5,268.8 200.4,269.7 198.5,271.5 197.5,271.7 194.4,269.4 192.4,267.6 190.5,266.9 187.8,267.5 184.7,272.1 182.8,270.7 179.4,272.2 178.3,271.2 176.4,271.5 173.9,269.4 173.4,271.1 172.4,271.1 170.3,269.8 168.8,271.1 166.8,272.4 163.2,271.0 162.2,270.9 162.5,269.1 163.4,269.4 163.7,267.0 162.8,265.5 162.1,266.1 161.1,265.0 161.8,264.3 162.3,261.6 161.6,261.2 161.4,258.8 159.9,259.4 157.1,261.9 157.5,263.9 156.6,264.6 154.6,264.6 154.4,263.7 153.0,262.8 152.2,261.5 152.7,260.8 150.3,259.1 149.1,258.8 147.5,257.1 146.6,258.5 143.3,258.8 142.3,260.1 142.5,262.3 141.0,264.6 141.1,266.1 140.4,267.1 139.4,267.1 139.0,268.3 136.9,268.2 135.4,270.8 134.1,270.7 132.7,269.5 131.1,270.4 131.9,272.0 129.2,271.3 127.8,271.8 127.0,270.3 127.1,268.3 124.5,265.4 125.0,263.3 124.3,262.2 122.3,261.7 121.0,261.1 121.9,259.8 124.7,254.4 127.0,253.2 128.5,253.7 129.9,252.6 132.6,252.5 133.5,251.3 133.6,250.2 135.6,250.2 136.7,251.5 137.2,249.4 134.8,248.3 133.6,249.0 130.8,248.6 128.5,248.7 127.6,249.5 125.2,248.9 123.6,247.4 123.4,245.0 124.7,243.2 125.8,243.0 127.9,240.6 129.8,239.6 130.5,239.9 132.5,237.9 134.2,235.5 133.9,232.2 135.3,231.5 139.0,231.4 141.0,231.8 143.7,233.2 144.2,231.2 141.3,229.8 139.0,228.0 138.6,227.1 141.1,225.8 144.9,226.0 145.6,225.3 145.8,223.6 144.7,222.9 143.7,224.0 141.5,223.8 140.7,224.3 139.0,223.6 137.5,223.5 136.9,224.5 133.4,224.2 133.1,221.7 133.4,219.6 132.1,219.2 127.6,219.8 127.2,217.3 130.3,216.8 135.3,216.6 136.8,216.2 137.8,214.9 140.8,215.3 141.4,214.8 142.3,212.9 144.1,212.3 146.4,212.1 147.7,211.0 150.0,209.9 150.7,207.3 150.6,205.6 151.9,203.3 154.0,203.4 156.2,202.0 158.4,202.9 159.3,202.6 160.6,203.6 162.4,203.2 163.1,207.2 164.5,208.5 168.0,209.1 168.2,207.7 170.3,208.0 171.0,207.1 172.3,207.8 172.7,206.6 175.5,207.1 175.8,205.6 177.3,206.0 178.7,205.6 179.4,204.5 181.6,204.1 182.7,206.0 183.0,207.5 183.1,210.5 184.0,212.1 185.8,214.2 187.4,212.7 188.7,214.3 189.4,216.2 190.2,215.9 191.5,216.7 192.7,216.5 194.6,215.5 195.0,213.9 194.9,212.2 198.4,212.8 199.1,213.8 200.2,214.2 201.1,211.5 200.3,211.4 200.6,209.4 201.5,209.2Z"><title>전북</title></path><path data-region="충남" d="M116.3,185.7 116.5,187.8 115.1,187.4 116.3,185.7ZM121.3,183.1 123.0,185.7 118.9,184.7 118.2,183.6 121.3,183.1ZM115.2,181.6 115.1,183.7 114.0,182.9 115.2,181.6ZM116.5,164.5 118.1,165.0 119.0,167.0 118.5,169.6 118.9,172.2 120.9,176.9 121.5,180.5 120.3,181.6 119.5,180.8 117.9,180.5 117.2,181.1 114.9,178.8 114.2,176.4 114.7,174.5 113.8,169.0 113.1,168.1 113.1,166.8 115.1,164.8 116.5,164.5ZM121.0,127.3 122.5,128.2 120.6,129.1 121.0,127.3ZM153.0,140.5 158.8,138.0 161.2,138.6 163.1,137.6 164.0,137.7 166.6,134.9 167.7,135.5 168.7,135.0 171.7,136.5 172.5,136.6 173.7,138.4 175.3,139.4 177.0,139.8 178.4,141.4 179.6,142.1 179.4,143.9 181.4,144.6 181.3,146.6 182.8,146.8 184.5,148.0 185.8,149.5 185.4,150.4 186.5,151.4 186.5,152.6 185.5,153.5 184.9,152.4 181.5,153.0 181.8,154.7 180.7,154.7 179.6,155.6 179.6,156.9 178.1,158.1 175.6,157.7 172.7,155.3 169.9,154.6 168.0,156.8 168.6,158.0 169.8,158.0 170.0,159.1 169.4,160.2 169.6,162.6 169.4,165.0 171.2,165.9 171.9,167.1 172.0,168.4 170.6,170.8 171.2,171.9 170.4,172.8 172.7,177.1 172.5,178.5 174.1,180.2 176.2,181.3 177.9,180.8 177.8,184.1 177.1,185.2 177.6,186.2 176.4,188.0 176.3,190.5 175.7,191.6 177.8,193.0 177.9,195.5 180.0,196.7 180.6,198.2 181.7,199.3 182.6,197.5 183.3,196.8 183.0,193.2 183.9,192.5 185.0,193.1 184.8,194.3 185.7,195.7 186.2,197.4 188.5,198.9 190.3,197.2 190.2,196.5 191.9,195.3 193.6,195.1 194.4,194.4 195.6,195.2 197.6,195.7 198.9,197.0 198.5,198.8 199.1,201.6 198.4,203.9 200.2,206.2 200.2,207.2 201.5,209.2 200.6,209.4 200.3,211.4 201.1,211.5 200.2,214.2 199.1,213.8 198.4,212.8 194.9,212.2 195.0,213.9 194.6,215.5 192.7,216.5 191.5,216.7 190.2,215.9 189.4,216.2 188.7,214.3 187.4,212.7 185.8,214.2 184.0,212.1 183.1,210.5 183.0,207.5 182.7,206.0 181.6,204.1 179.4,204.5 178.7,205.6 177.3,206.0 175.8,205.6 175.5,207.1 172.7,206.6 172.3,207.8 171.0,207.1 170.3,208.0 168.2,207.7 168.0,209.1 164.5,208.5 163.1,207.2 162.4,203.2 160.6,203.6 159.3,202.6 158.4,202.9 156.2,202.0 154.0,203.4 151.9,203.3 150.6,205.6 150.7,207.3 150.0,209.9 147.7,211.0 146.4,212.1 144.1,212.3 142.3,212.9 141.4,214.8 136.5,214.0 136.9,212.3 135.4,210.3 134.6,210.3 134.6,207.2 132.8,205.9 130.9,203.5 129.7,204.2 128.3,202.7 126.6,202.4 127.4,199.6 128.6,198.7 127.7,196.7 127.8,195.2 128.9,193.2 127.6,190.5 126.9,190.2 125.9,188.2 129.2,186.3 126.4,183.6 124.4,183.4 125.0,181.0 125.6,179.8 124.6,177.7 124.0,173.5 124.7,172.5 123.2,170.6 122.2,166.7 122.5,165.8 124.2,165.1 124.0,164.1 122.9,163.4 123.6,161.1 123.2,160.2 121.9,160.0 122.0,161.9 120.7,165.5 119.8,165.3 118.8,164.0 116.7,163.3 116.5,159.9 115.1,159.9 115.6,162.3 116.1,163.4 113.8,165.8 111.9,166.9 111.2,165.9 111.4,164.0 112.2,163.1 111.5,160.3 110.0,159.5 109.9,157.6 110.6,156.9 110.5,155.2 109.3,155.9 107.7,157.9 106.6,157.9 105.6,159.4 104.0,159.1 101.2,159.9 101.1,158.3 102.2,158.4 102.2,157.0 103.9,155.8 106.3,156.8 107.2,155.5 106.0,155.1 104.8,153.0 103.4,152.6 102.3,153.2 102.6,154.8 101.5,155.8 100.6,155.1 101.4,154.0 99.2,151.3 101.1,151.2 101.9,150.0 103.0,147.0 102.2,145.9 103.3,145.2 104.1,146.2 105.3,145.0 105.0,143.5 106.4,140.8 109.0,139.9 108.6,141.8 107.2,142.5 108.6,143.8 109.3,142.6 110.4,142.2 111.4,140.6 112.0,138.4 111.4,135.6 113.0,134.8 113.4,136.4 112.6,137.2 112.6,139.1 113.8,140.4 113.8,141.5 112.1,145.6 113.6,145.9 111.2,147.6 112.3,148.4 115.0,147.6 113.9,146.0 114.1,144.5 115.2,145.1 116.7,144.9 117.2,143.8 116.7,142.8 118.8,141.5 119.7,140.3 117.8,137.3 114.7,136.0 115.0,134.7 114.1,133.2 117.5,131.7 120.8,131.4 122.5,132.2 124.3,135.2 124.9,134.1 122.7,130.6 125.6,127.3 127.1,127.8 127.7,129.1 132.3,131.3 135.1,132.8 139.4,132.7 140.3,133.2 144.4,134.6 144.4,135.3 145.9,138.9 146.6,138.8 146.8,141.2 147.5,142.0 147.9,144.0 148.9,142.7 151.1,141.9 153.2,141.7 153.0,140.5Z"><title>충남</title></path><path data-region="충북" d="M269.1,127.3 267.6,129.5 264.5,129.1 263.3,130.1 263.7,131.3 261.9,133.3 259.9,133.7 259.8,134.6 256.5,137.0 256.3,138.1 255.1,138.6 255.0,140.7 253.9,142.8 255.5,143.8 255.6,145.1 253.7,148.2 251.1,148.0 250.1,149.1 247.9,147.7 247.0,147.9 245.4,146.3 244.5,144.4 241.8,143.1 241.2,145.2 239.9,145.1 240.2,147.9 236.6,147.5 234.9,146.3 233.1,147.5 232.8,148.6 231.3,148.8 229.6,147.8 229.3,149.7 227.8,153.4 230.2,155.5 230.4,156.7 228.9,156.6 227.1,155.2 225.8,156.0 224.8,155.9 223.1,154.3 222.2,155.8 221.1,156.8 221.1,157.9 218.1,158.0 221.1,160.2 221.5,161.3 221.1,164.1 218.3,163.1 217.3,161.0 216.5,162.7 215.5,162.8 215.6,164.5 213.9,164.5 212.2,166.3 213.9,167.9 216.4,168.1 217.2,169.2 217.2,170.6 219.0,171.7 219.4,173.1 217.7,175.3 217.8,177.0 217.2,178.9 217.8,180.2 217.2,181.5 218.4,185.5 217.8,186.5 215.8,187.7 215.1,189.4 215.7,192.2 217.6,192.3 218.5,190.9 221.0,192.0 222.3,193.8 223.5,194.3 224.5,193.1 226.3,192.5 228.8,193.8 227.6,195.1 229.0,197.2 229.1,198.4 228.2,198.9 226.5,197.7 224.7,198.4 224.0,199.4 225.4,202.3 224.8,204.3 223.4,205.1 222.8,207.1 223.1,209.2 221.4,210.7 220.1,210.4 219.2,211.7 217.5,213.0 215.9,211.7 212.4,212.7 211.5,213.7 207.7,212.2 206.1,212.2 205.5,210.2 204.7,209.8 203.0,211.6 202.6,210.2 201.5,209.2 200.2,207.2 200.2,206.2 198.4,203.9 199.1,201.6 198.5,198.8 198.9,197.0 197.6,195.7 195.6,195.2 194.4,194.4 193.6,195.1 191.9,195.3 191.4,193.6 192.2,191.3 192.4,187.5 194.1,184.5 194.0,183.0 196.0,182.1 195.2,180.3 193.4,180.2 192.5,181.3 191.6,179.3 192.5,177.9 191.0,177.2 189.2,177.9 188.1,177.3 185.9,177.4 186.0,175.1 185.4,174.5 186.1,174.2 186.3,171.8 185.8,170.4 184.6,170.3 183.9,168.8 181.5,168.6 180.7,167.1 179.6,166.9 179.1,164.3 177.6,162.7 178.2,161.1 179.1,160.7 179.5,158.8 178.1,158.1 179.6,156.9 179.6,155.6 180.7,154.7 181.8,154.7 181.5,153.0 184.9,152.4 185.5,153.5 186.5,152.6 186.5,151.4 185.4,150.4 185.8,149.5 184.5,148.0 182.8,146.8 181.3,146.6 181.4,144.6 179.4,143.9 179.6,142.1 178.4,141.4 179.6,138.5 181.9,137.2 182.3,136.6 184.3,136.6 185.8,135.3 184.7,133.9 185.3,132.8 187.7,132.5 189.6,131.0 189.5,129.1 191.5,128.2 192.3,128.7 193.4,127.9 195.9,129.0 196.8,128.8 196.8,127.5 199.1,125.6 201.1,124.7 201.5,121.1 204.8,121.6 206.9,117.5 207.4,117.6 208.1,115.4 208.9,114.8 208.6,115.4 209.3,118.2 210.2,119.7 211.6,120.8 213.3,120.6 216.4,119.8 217.2,119.1 219.1,120.2 220.4,119.1 221.4,117.2 220.4,114.1 222.2,112.4 224.7,111.4 226.9,112.6 227.0,113.5 228.3,115.0 227.6,116.0 228.3,117.1 230.9,116.7 233.1,115.6 234.0,114.5 236.0,114.9 237.2,114.7 237.2,113.5 239.0,112.2 240.3,112.9 240.9,113.9 242.5,113.9 243.6,115.6 246.7,114.3 247.8,114.9 247.3,116.5 244.0,118.5 243.3,119.5 243.9,120.5 245.2,121.3 247.7,120.3 248.1,119.7 252.3,120.6 252.1,122.1 253.9,123.4 257.0,123.6 258.1,122.8 259.8,123.3 259.9,124.2 261.5,125.3 263.1,125.2 265.0,126.2 267.5,126.5 269.1,127.3Z"><title>충북</title></path><path data-region="강원" d="M316.5,120.6 314.9,120.7 312.5,122.1 311.8,123.3 310.3,123.0 309.9,124.3 308.9,124.8 307.3,126.6 307.7,129.0 305.2,129.3 301.6,125.9 298.6,124.4 297.3,125.0 296.6,127.1 291.1,125.7 289.6,126.3 288.5,124.8 287.1,125.1 285.3,129.0 284.0,129.0 282.0,128.4 280.7,126.2 279.5,126.3 277.9,125.4 276.6,127.4 275.7,127.9 276.4,129.8 275.7,130.3 274.6,129.4 272.3,129.3 271.5,128.3 269.1,127.3 267.5,126.5 265.0,126.2 263.1,125.2 261.5,125.3 259.9,124.2 259.8,123.3 258.1,122.8 257.0,123.6 253.9,123.4 252.1,122.1 252.3,120.6 248.1,119.7 247.7,120.3 245.2,121.3 243.9,120.5 243.3,119.5 244.0,118.5 247.3,116.5 247.8,114.9 246.7,114.3 243.6,115.6 242.5,113.9 240.9,113.9 240.3,112.9 239.0,112.2 237.2,113.5 237.2,114.7 236.0,114.9 234.0,114.5 233.1,115.6 230.9,116.7 228.3,117.1 227.6,116.0 228.3,115.0 227.0,113.5 226.9,112.6 224.7,111.4 222.2,112.4 220.4,114.1 221.4,117.2 220.4,119.1 219.1,120.2 217.2,119.1 216.4,119.8 213.3,120.6 211.6,120.8 210.2,119.7 209.3,118.2 208.6,115.4 208.9,114.8 208.9,112.3 209.6,111.4 209.3,108.2 210.2,107.4 209.6,105.5 209.6,102.5 210.8,102.1 210.9,100.7 212.0,97.8 212.6,97.4 212.1,94.6 210.6,92.2 210.6,91.1 212.8,88.7 215.2,88.3 215.6,87.2 213.2,86.2 211.8,84.5 210.1,84.7 209.3,84.0 206.2,84.5 205.4,83.3 202.6,81.5 200.8,79.8 199.2,79.1 197.6,80.6 196.3,81.0 194.8,79.8 195.9,78.3 195.7,76.3 196.5,73.4 195.1,73.5 192.9,72.6 195.3,70.2 193.8,67.6 194.7,66.1 194.1,65.0 194.5,63.4 196.5,62.3 198.0,60.7 199.1,60.8 200.2,58.1 199.9,55.4 199.2,54.1 195.3,53.1 195.5,52.2 195.0,50.4 192.4,50.5 190.5,50.0 189.6,49.1 188.6,45.6 188.8,44.6 188.4,41.6 187.7,41.0 186.5,42.1 185.9,41.2 184.6,41.0 180.4,42.6 179.8,40.9 177.9,40.9 177.4,39.2 178.2,37.9 178.3,35.9 177.1,35.5 176.1,37.0 173.9,38.4 171.7,37.2 171.0,35.3 170.1,34.0 170.3,32.9 169.9,31.4 168.9,30.5 167.7,31.3 166.4,30.5 166.6,28.6 166.3,26.4 168.2,25.0 168.6,23.4 169.7,23.0 171.2,24.4 172.2,24.2 175.3,22.6 176.3,23.2 178.6,23.5 179.7,24.4 181.6,23.2 182.2,23.4 184.9,22.5 187.3,23.0 189.0,24.4 190.7,24.3 191.5,25.5 192.9,25.5 195.1,23.7 198.2,22.5 199.5,22.4 201.6,23.4 205.0,23.1 205.7,22.2 207.7,22.7 208.8,21.8 210.8,21.4 212.5,23.7 215.2,23.3 217.9,22.2 220.7,22.7 224.1,24.1 229.9,24.7 235.7,21.6 240.0,19.0 241.8,17.4 242.2,16.5 244.4,14.7 245.7,11.6 246.6,4.0 246.3,1.8 247.0,0.3 249.0,0.0 252.1,3.8 252.7,5.9 253.8,7.5 253.8,8.8 255.0,11.2 256.8,13.3 256.0,13.7 256.2,15.1 257.1,16.7 260.0,19.9 260.7,22.6 262.3,24.6 263.5,28.3 264.9,30.5 264.7,31.5 265.4,34.1 266.2,35.4 266.2,38.0 268.0,40.9 270.1,42.9 270.8,45.0 272.4,47.1 274.0,48.5 274.7,50.0 277.1,54.2 278.3,55.0 278.3,55.8 281.2,58.8 280.9,59.9 284.1,63.7 284.2,64.5 291.4,71.8 293.2,74.4 296.0,77.1 296.0,78.3 295.2,79.8 295.9,81.6 300.0,85.3 300.4,86.8 299.8,88.3 300.4,89.8 302.9,93.5 304.7,95.2 305.4,98.5 307.0,100.0 308.9,101.3 309.0,102.8 310.0,104.4 310.2,106.1 312.4,107.7 312.3,108.6 314.2,109.6 314.0,110.8 316.0,113.3 315.0,114.1 315.4,115.2 314.9,116.7 315.0,118.0 316.5,120.6Z"><title>강원</title></path><path data-region="경기" d="M133.0,107.3 131.3,108.4 130.4,109.7 132.2,111.1 133.0,111.0 133.9,113.2 135.8,114.1 135.5,115.3 133.2,114.7 132.6,115.6 131.4,114.5 130.3,115.9 128.7,115.7 128.5,114.2 129.8,112.7 130.0,111.6 129.0,109.6 130.3,109.5 131.0,108.3 133.0,107.3ZM208.9,114.8 208.1,115.4 207.4,117.6 206.9,117.5 204.8,121.6 201.5,121.1 201.1,124.7 199.1,125.6 196.8,127.5 196.8,128.8 195.9,129.0 193.4,127.9 192.3,128.7 191.5,128.2 189.5,129.1 189.6,131.0 187.7,132.5 185.3,132.8 184.7,133.9 185.8,135.3 184.3,136.6 182.3,136.6 181.9,137.2 179.6,138.5 178.4,141.4 177.0,139.8 175.3,139.4 173.7,138.4 172.5,136.6 171.7,136.5 168.7,135.0 167.7,135.5 166.6,134.9 164.0,137.7 163.1,137.6 161.2,138.6 158.8,138.0 153.0,140.5 152.7,138.7 151.5,137.9 150.0,138.2 149.9,136.9 148.8,136.0 147.4,133.7 147.4,133.0 145.6,132.0 145.0,130.3 142.5,130.3 142.3,128.6 143.2,127.1 143.8,124.2 143.0,123.6 143.7,122.1 145.4,122.1 146.0,120.2 145.1,118.2 144.3,119.1 142.2,119.1 140.9,121.3 138.3,123.1 137.3,121.3 137.9,120.4 136.5,119.3 136.8,115.5 137.6,114.3 136.7,113.2 138.2,111.1 141.3,112.1 142.9,111.7 145.0,112.6 145.1,110.7 147.5,108.9 146.0,108.3 143.9,108.9 140.8,107.8 140.6,106.9 138.6,105.2 138.3,104.0 139.1,103.5 141.5,100.2 142.6,97.9 143.7,97.5 144.3,95.6 143.6,93.9 141.9,92.6 142.1,90.4 143.1,90.2 143.6,87.1 143.8,87.6 147.2,88.2 147.6,89.4 146.7,92.1 147.2,93.5 148.4,93.6 150.3,92.1 152.6,97.0 154.1,95.8 155.0,96.8 156.6,96.4 159.3,94.2 159.8,95.2 161.5,95.1 161.4,96.4 162.5,97.4 163.4,97.4 165.6,94.9 166.9,94.7 168.8,93.5 169.8,91.5 168.4,90.8 169.9,87.9 171.0,87.7 171.2,86.5 170.6,85.0 165.8,86.6 165.8,84.7 166.9,83.0 166.3,79.7 165.2,79.2 165.4,76.0 164.5,75.4 162.4,76.1 160.1,75.0 159.6,76.4 158.6,77.0 157.7,78.8 158.1,80.3 157.4,80.8 155.5,78.5 153.2,79.7 152.5,82.3 152.5,83.7 150.8,85.0 149.1,85.3 147.1,84.1 146.1,83.0 145.3,84.8 142.0,83.9 140.8,84.0 139.0,81.9 136.2,80.2 134.8,81.0 134.3,82.8 133.0,83.0 130.6,84.3 129.4,82.6 129.1,81.1 127.7,79.0 128.1,77.9 127.3,77.0 127.6,74.9 127.0,74.1 127.5,72.0 127.6,71.1 126.7,69.6 128.2,69.2 129.4,69.4 130.2,70.5 133.1,70.8 135.0,68.7 136.6,67.7 137.3,64.3 136.4,63.7 138.5,61.4 137.2,59.8 137.6,58.9 136.8,56.9 137.3,54.1 138.4,55.1 140.0,55.4 142.0,54.4 141.7,52.7 143.3,51.7 144.4,51.9 145.5,51.0 147.7,51.0 147.3,49.5 147.9,47.7 149.3,47.9 150.6,48.9 151.1,47.2 151.9,46.2 152.0,44.3 150.2,43.8 149.1,42.6 147.6,44.0 147.2,43.2 145.5,43.7 144.7,42.3 142.3,39.9 143.7,37.7 147.5,34.2 150.6,32.1 152.1,33.6 154.1,33.7 155.9,33.1 156.7,34.2 158.0,33.0 157.4,31.2 158.4,31.0 160.8,29.3 163.7,28.2 166.3,26.4 166.6,28.6 166.4,30.5 167.7,31.3 168.9,30.5 169.9,31.4 170.3,32.9 170.1,34.0 171.0,35.3 171.7,37.2 173.9,38.4 176.1,37.0 177.1,35.5 178.3,35.9 178.2,37.9 177.4,39.2 177.9,40.9 179.8,40.9 180.4,42.6 184.6,41.0 185.9,41.2 186.5,42.1 187.7,41.0 188.4,41.6 188.8,44.6 188.6,45.6 189.6,49.1 190.5,50.0 192.4,50.5 195.0,50.4 195.5,52.2 195.3,53.1 199.2,54.1 199.9,55.4 200.2,58.1 199.1,60.8 198.0,60.7 196.5,62.3 194.5,63.4 194.1,65.0 194.7,66.1 193.8,67.6 195.3,70.2 192.9,72.6 195.1,73.5 196.5,73.4 195.7,76.3 195.9,78.3 194.8,79.8 196.3,81.0 197.6,80.6 199.2,79.1 200.8,79.8 202.6,81.5 205.4,83.3 206.2,84.5 209.3,84.0 210.1,84.7 211.8,84.5 213.2,86.2 215.6,87.2 215.2,88.3 212.8,88.7 210.6,91.1 210.6,92.2 212.1,94.6 212.6,97.4 212.0,97.8 210.9,100.7 210.8,102.1 209.6,102.5 209.6,105.5 210.2,107.4 209.3,108.2 209.6,111.4 208.9,112.3 208.9,114.8Z"><title>경기</title></path><path data-region="세종" d="M178.1,158.1 179.5,158.8 179.1,160.7 178.2,161.1 177.6,162.7 179.1,164.3 179.6,166.9 180.7,167.1 181.5,168.6 183.9,168.8 184.6,170.3 185.8,170.4 186.3,171.8 186.1,174.2 185.4,174.5 184.4,173.8 183.0,175.0 183.1,176.2 182.6,178.0 180.8,180.2 178.6,180.2 177.9,180.8 176.2,181.3 174.1,180.2 172.5,178.5 172.7,177.1 170.4,172.8 171.2,171.9 170.6,170.8 172.0,168.4 171.9,167.1 171.2,165.9 169.4,165.0 169.6,162.6 169.4,160.2 170.0,159.1 169.8,158.0 168.6,158.0 168.0,156.8 169.9,154.6 172.7,155.3 175.6,157.7 178.1,158.1Z"><title>세종</title></path><path data-region="울산" d="M322.2,243.6 321.6,245.2 323.1,247.4 323.2,248.9 322.4,250.1 322.8,251.1 321.9,254.1 321.5,257.2 317.8,258.0 315.5,260.2 316.5,260.8 316.4,263.3 315.2,266.1 316.1,267.8 313.7,268.6 312.5,270.0 310.9,269.0 311.1,267.3 309.9,265.3 306.7,265.9 305.8,265.2 306.9,263.4 305.3,261.0 304.1,261.5 302.9,261.3 301.5,260.2 299.5,257.6 299.3,256.4 293.8,253.9 291.9,253.6 290.3,251.0 291.9,250.3 293.6,249.0 294.0,247.7 293.6,246.5 292.5,246.1 295.4,243.6 297.2,244.5 296.8,242.9 296.9,241.1 298.1,239.4 301.2,238.6 301.9,237.5 302.9,238.3 306.0,237.8 307.8,239.2 309.1,239.4 309.7,240.2 309.2,242.3 309.6,243.3 312.4,243.8 315.8,241.2 319.7,242.5 322.2,243.6Z"><title>울산</title></path><path data-region="대전" d="M191.9,195.3 190.2,196.5 190.3,197.2 188.5,198.9 186.2,197.4 185.7,195.7 184.8,194.3 185.0,193.1 183.9,192.5 183.0,193.2 183.3,196.8 182.6,197.5 181.7,199.3 180.6,198.2 180.0,196.7 177.9,195.5 177.8,193.0 175.7,191.6 176.3,190.5 176.4,188.0 177.6,186.2 177.1,185.2 177.8,184.1 177.9,180.8 178.6,180.2 180.8,180.2 182.6,178.0 183.1,176.2 183.0,175.0 184.4,173.8 185.4,174.5 186.0,175.1 185.9,177.4 188.1,177.3 189.2,177.9 191.0,177.2 192.5,177.9 191.6,179.3 192.5,181.3 193.4,180.2 195.2,180.3 196.0,182.1 194.0,183.0 194.1,184.5 192.4,187.5 192.2,191.3 191.4,193.6 191.9,195.3Z"><title>대전</title></path><path data-region="광주" d="M152.9,275.8 154.5,276.4 154.6,277.3 157.4,281.7 159.2,281.6 160.4,283.3 159.6,284.3 159.7,286.9 158.2,289.3 156.8,289.7 155.8,291.1 154.6,291.0 153.9,289.7 150.5,291.0 149.4,290.7 147.0,292.8 145.4,292.0 144.3,292.7 143.2,289.6 141.8,288.3 138.2,287.9 137.6,288.4 135.8,287.2 136.0,283.5 137.2,283.1 136.4,281.3 137.6,281.2 138.2,279.4 139.3,280.0 140.3,279.6 140.4,278.4 141.5,276.4 143.3,276.2 142.8,277.8 146.1,279.1 148.3,278.1 150.7,276.5 151.7,276.8 152.9,275.8Z"><title>광주</title></path><path data-region="인천" d="M97.8,123.7 98.4,124.9 97.4,125.8 96.5,124.8 97.8,123.7ZM111.6,110.3 113.6,111.0 112.7,111.8 111.3,111.0 111.6,110.3ZM99.6,110.2 100.4,111.4 102.1,113.0 103.2,113.3 101.9,115.0 100.3,115.5 100.0,114.4 98.5,113.8 98.4,112.3 99.6,110.2ZM123.8,109.0 125.0,109.4 125.9,111.4 124.5,112.1 123.0,114.1 121.2,113.4 121.6,110.2 123.8,109.0ZM119.9,98.8 121.8,101.0 121.4,102.2 120.0,102.6 119.1,99.7 119.9,98.8ZM131.0,91.5 131.4,92.4 130.2,93.2 128.6,93.4 126.3,94.4 125.5,95.8 121.9,98.1 120.4,98.0 120.1,97.1 118.8,96.0 117.2,95.9 116.2,94.3 117.3,93.8 121.2,91.2 123.4,91.6 124.6,91.2 125.7,88.9 127.5,89.3 130.1,90.4 131.0,91.5ZM123.2,87.9 124.0,88.5 123.6,90.6 121.2,89.5 123.2,87.9ZM113.0,86.6 116.5,89.0 114.3,89.3 114.4,88.2 113.0,86.6ZM145.3,84.8 143.6,87.1 143.1,90.2 142.1,90.4 141.9,92.6 143.6,93.9 144.3,95.6 143.7,97.5 142.6,97.9 141.5,100.2 141.0,100.8 136.5,104.4 133.6,104.5 133.2,101.9 132.3,101.0 132.3,97.4 132.0,94.5 132.7,91.8 132.6,89.3 132.8,87.1 132.0,86.7 130.6,84.3 133.0,83.0 134.3,82.8 134.8,81.0 136.2,80.2 139.0,81.9 140.8,84.0 142.0,83.9 145.3,84.8ZM108.0,78.7 109.4,78.9 108.8,80.8 107.5,79.3 108.0,78.7ZM73.5,76.7 73.2,77.9 71.4,78.9 71.4,76.7 73.5,76.7ZM105.5,76.0 106.5,77.8 106.1,78.7 104.3,77.6 105.5,76.0ZM114.4,71.0 113.8,73.8 115.5,75.2 117.2,75.5 117.5,77.7 115.3,79.8 114.1,79.9 114.2,78.2 113.6,76.6 111.5,75.4 110.4,74.4 111.4,73.7 111.7,71.5 114.4,71.0ZM110.2,65.6 112.0,66.5 114.3,66.5 114.8,67.0 113.6,69.0 111.9,69.8 110.5,69.4 109.0,69.7 107.6,70.8 106.3,69.5 107.3,67.6 107.3,66.4 108.2,65.5 110.2,65.6ZM127.5,72.0 127.0,74.1 127.6,74.9 127.3,77.0 128.1,77.9 127.7,79.0 127.8,80.2 128.9,82.9 127.4,83.6 126.8,85.0 125.8,84.1 124.4,84.7 124.0,83.5 121.5,83.9 119.4,83.8 117.6,82.6 117.2,80.6 119.4,79.2 118.2,75.9 115.9,74.6 115.3,73.4 115.2,71.1 116.1,70.3 115.7,67.6 117.2,66.4 118.7,64.8 121.5,64.3 123.4,66.5 126.3,68.3 126.6,69.9 127.5,72.0ZM6.3,63.0 7.3,63.1 7.3,65.5 6.7,66.3 4.8,66.5 4.5,65.1 6.3,63.0ZM4.9,52.0 6.3,51.7 7.9,52.2 8.0,54.3 6.4,55.0 5.6,57.3 1.7,56.7 0.0,53.7 0.2,52.3 1.8,53.0 4.9,52.0Z"><title>인천</title></path><path data-region="대구" d="M260.7,241.0 259.5,241.6 259.3,244.5 257.9,244.8 255.4,244.6 254.4,245.9 251.1,247.2 250.3,246.8 251.3,246.8 252.5,244.3 251.1,243.2 249.3,241.1 249.0,239.3 249.6,238.9 253.5,240.1 254.5,239.3 254.4,237.4 251.8,235.8 251.4,234.3 252.8,231.6 253.6,230.5 256.9,230.6 257.4,229.1 256.3,227.9 253.8,227.1 251.6,227.2 251.3,225.9 252.5,224.0 253.5,221.3 255.0,220.2 257.3,220.1 256.8,222.6 257.3,223.5 258.5,223.4 260.5,221.6 261.3,219.8 260.7,216.9 262.7,217.3 264.9,216.6 266.8,214.3 271.6,213.7 274.0,214.5 274.4,216.1 275.3,217.3 274.8,218.5 275.3,219.5 274.8,220.8 276.0,221.9 276.5,224.4 275.7,226.6 272.8,229.1 273.4,230.8 271.1,232.2 272.0,234.8 271.7,236.9 271.2,237.7 269.9,237.9 268.1,239.1 267.1,239.3 266.3,237.4 266.7,236.5 264.3,236.3 261.9,238.0 260.7,241.0Z"><title>대구</title></path><path data-region="부산" d="M312.5,270.0 309.9,270.8 309.6,273.9 308.4,275.4 309.1,276.8 307.8,279.4 307.2,281.8 305.5,282.4 305.2,283.8 301.3,284.4 300.3,286.1 300.8,288.0 300.4,288.9 298.5,288.9 296.7,288.2 296.6,287.0 295.6,286.9 295.0,288.2 296.8,289.2 297.6,291.2 298.6,292.1 297.8,292.9 294.6,290.1 293.7,292.0 292.3,293.1 291.0,293.2 290.0,294.3 289.0,290.7 287.0,290.0 286.4,290.5 281.2,290.5 282.3,292.8 282.2,294.3 281.3,296.0 279.3,295.4 279.7,293.8 278.7,292.6 280.3,292.1 281.0,291.1 280.4,289.0 281.7,288.3 281.1,286.4 279.1,285.4 278.5,284.1 281.8,284.1 283.3,283.4 284.4,282.1 283.6,280.5 284.5,279.5 287.1,279.3 292.1,277.8 293.1,274.6 295.5,274.1 296.2,272.8 297.1,273.2 298.2,272.2 299.7,271.7 300.7,268.7 302.1,267.1 303.9,268.2 305.1,267.4 305.8,265.2 306.7,265.9 309.9,265.3 311.1,267.3 310.9,269.0 312.5,270.0Z"><title>부산</title></path><path data-region="서울" d="M143.6,87.1 145.3,84.8 146.1,83.0 147.1,84.1 149.1,85.3 150.8,85.0 152.5,83.7 152.5,82.3 153.2,79.7 155.5,78.5 157.4,80.8 158.1,80.3 157.7,78.8 158.6,77.0 159.6,76.4 160.1,75.0 162.4,76.1 164.5,75.4 165.4,76.0 165.2,79.2 166.3,79.7 166.9,83.0 165.8,84.7 165.8,86.6 170.6,85.0 171.2,86.5 171.0,87.7 169.9,87.9 168.4,90.8 169.8,91.5 168.8,93.5 166.9,94.7 165.6,94.9 163.4,97.4 162.5,97.4 161.4,96.4 161.5,95.1 159.8,95.2 159.3,94.2 156.6,96.4 155.0,96.8 154.1,95.8 152.6,97.0 150.3,92.1 148.4,93.6 147.2,93.5 146.7,92.1 147.6,89.4 147.2,88.2 143.8,87.6 143.6,87.1Z"><title>서울</title></path></g><g class="map-labels"><text x="130" y="430">제주</text><text x="247" y="272">경남</text><text x="269" y="194">경북</text><text x="153" y="308">전남</text><text x="165" y="238">전북</text><text x="138" y="182">충남</text><text x="217" y="156">충북</text><text x="237" y="75">강원</text><text x="175" y="99">경기</text><text x="181" y="156">세종</text><text x="318" y="252">울산</text><text x="194" y="197">대전</text><text x="138" y="290">광주</text><text x="122" y="89">인천</text><text x="259" y="235">대구</text><text x="303" y="291">부산</text><text x="158" y="87">서울</text></g></svg>